<svg width="400" height="400" viewBox="0 0 400 400" fill="none" xmlns="http://www.w3.org/2000/svg">
<g clip-path="url(#clip0_18_4)">
<path d="M274.873 368.5V367.859H230.3C199.336 367.908 168.963 359.379 142.55 343.22C152.985 332.683 160.438 319.566 164.15 305.208H142.43C138.926 315.121 132.988 323.995 125.16 331.015C108.947 318.044 95.2586 302.2 84.78 284.274C74.0785 265.966 66.9553 245.791 63.79 224.822C70.1276 222.729 76.7597 221.665 83.434 221.672C91.6465 221.683 99.7744 223.332 107.341 226.524C114.908 229.717 121.761 234.387 127.5 240.262L93.874 273.885H166.967V200.791L142.429 225.33C134.706 217.542 125.514 211.363 115.387 207.151C105.26 202.939 94.3973 200.778 83.429 200.792C76.1741 200.788 68.9493 201.725 61.936 203.582C61.903 202.195 61.886 200.806 61.886 199.454V199.411C61.8831 188.011 63.0293 176.64 65.307 165.47C69.7199 143.928 78.3317 123.465 90.651 105.25C108.93 78.173 134.67 56.9783 164.751 44.234C174.939 39.9277 185.528 36.6407 196.363 34.421C218.76 29.8591 241.847 29.8591 264.244 34.421C285.786 38.8328 306.248 47.4433 324.463 59.761C351.54 78.0402 372.735 103.78 385.479 133.861C389.785 144.049 393.072 154.638 395.292 165.473C397.57 176.643 398.716 188.014 398.713 199.414V199.457C398.713 199.457 398.713 199.464 398.713 199.468V199.479L398.69 244H274.873V367.863H275.514L274.875 368.502L274.873 368.5ZM398.641 367.86H275.513L398.69 244.686L398.641 367.863V367.86ZM83.432 367.86C66.7941 367.893 50.5304 362.925 36.751 353.6C25.3855 345.915 16.0855 335.552 9.67098 323.424C3.25644 311.296 -0.075545 297.776 -0.0311789 284.056C0.0131872 270.337 3.43255 256.839 9.92538 244.752C16.4182 232.666 25.7851 222.363 37.2 214.752C44.7758 209.692 53.1348 205.918 61.94 203.581C62.1114 210.694 62.729 217.789 63.789 224.824C54.9422 227.737 46.8562 232.586 40.1196 239.018C33.383 245.45 28.1654 253.303 24.8465 262.006C21.5275 270.709 20.1908 280.042 20.9337 289.327C21.6765 298.611 24.4802 307.613 29.1406 315.677C33.8011 323.742 40.201 330.665 47.8746 335.944C55.5482 341.223 64.3023 344.725 73.4998 346.195C82.6972 347.664 92.1066 347.064 101.043 344.438C109.979 341.813 118.218 337.228 125.159 331.017C130.695 335.445 136.503 339.521 142.55 343.222C134.961 350.893 125.953 357.015 116.028 361.248C105.722 365.637 94.6331 367.887 83.432 367.863V367.86ZM398.69 244.686V244H399.371L398.691 244.68L398.69 244.686Z" fill="#C4AAFF"/>
</g>
<defs>
<clipPath id="clip0_18_4">
<rect width="399.371" height="337.504" fill="white" transform="translate(0 31)"/>
</clipPath>
</defs>
</svg>
